<?xml version="1.0" standalone="no"?><!DOCTYPE svg PUBLIC "-//W3C//DTD SVG 1.1//EN" "http://www.w3.org/Graphics/SVG/1.1/DTD/svg11.dtd"><svg t="1522137232450" class="icon" style="" viewBox="0 0 1024 1024" version="1.1" xmlns="http://www.w3.org/2000/svg" p-id="3511" xmlns:xlink="http://www.w3.org/1999/xlink" width="200" height="200"><defs><style type="text/css"></style></defs><path d="M872.3456 874.7008C772.7104 974.2336 652.5952 1024 512 1024c-140.5952 0-261.12-50.0736-361.472-150.528C50.176 773.12 0 652.6976 0 512c0-140.5952 50.176-261.12 150.528-361.472C250.88 50.176 371.4048 0 512 0c140.5952 0 261.12 50.176 361.472 150.528C973.824 250.88 1024 371.4048 1024 512 1024 652.6976 973.4144 773.632 872.3456 874.7008zM846.2336 177.7664C752.9472 84.5824 641.536 37.888 512 37.888c-129.536 0-240.9472 46.592-334.2336 139.8784C84.5824 271.0528 37.888 382.464 37.888 512c0 129.536 46.592 240.9472 139.8784 334.2336C271.0528 939.52 382.464 986.112 512 986.112c129.536 0 240.9472-46.592 334.2336-139.8784C939.4176 752.9472 986.112 641.536 986.112 512 986.112 382.464 939.4176 271.0528 846.2336 177.7664zM151.6544 512c0-12.5952 6.3488-18.944 18.944-18.944S189.6448 499.4048 189.6448 512c0 88.576 31.6416 164.352 94.8224 227.5328C347.648 802.816 423.5264 834.3552 512 834.3552S676.352 802.816 739.5328 739.5328C802.816 676.352 834.3552 600.576 834.3552 512c0-12.5952 6.3488-18.944 18.944-18.944S872.3456 499.4048 872.3456 512c0 99.5328-35.1232 184.5248-105.472 254.7712C696.5248 837.12 611.5328 872.3456 512 872.3456c-99.5328 0-184.5248-35.1232-254.7712-105.472C186.88 696.5248 151.6544 611.5328 151.6544 512zM395.8784 433.7664C381.6448 448 363.4176 455.0656 341.2992 455.0656c-22.1184 0-40.2432-7.0656-54.4768-21.2992C272.5888 419.5328 265.5232 401.408 265.5232 379.2896c0-22.1184 7.0656-40.2432 21.2992-54.4768C301.056 310.4768 319.1808 303.4112 341.2992 303.4112c22.1184 0 40.2432 7.168 54.4768 21.2992C410.112 338.944 417.1776 357.1712 417.1776 379.2896 417.1776 401.408 410.112 419.5328 395.8784 433.7664zM379.2896 379.2896c0-25.1904-12.5952-37.888-37.888-37.888s-37.888 12.6976-37.888 37.888c0 25.2928 12.5952 37.888 37.888 37.888S379.2896 404.5824 379.2896 379.2896zM737.1776 433.7664C722.944 448 704.8192 455.0656 682.7008 455.0656c-22.1184 0-40.2432-7.0656-54.4768-21.2992C613.888 419.5328 606.8224 401.408 606.8224 379.2896c0-22.1184 7.0656-40.2432 21.2992-54.4768 14.2336-14.2336 32.3584-21.2992 54.4768-21.2992 22.1184 0 40.2432 7.168 54.4768 21.2992C751.4112 338.944 758.4768 357.1712 758.4768 379.2896 758.4768 401.408 751.4112 419.5328 737.1776 433.7664zM720.5888 379.2896c0-25.1904-12.5952-37.888-37.888-37.888-25.2928 0-37.888 12.6976-37.888 37.888 0 25.2928 12.5952 37.888 37.888 37.888C707.9936 417.1776 720.5888 404.5824 720.5888 379.2896z" p-id="3512"></path></svg>